HIERARCHY
ROOT Hips
{
  OFFSET 0 0 0
  CHANNELS 6 Xposition Yposition Zposition Zrotation Yrotation Xrotation
  JOINT LeftThigh
  {
    OFFSET 8.409438 0 -5.917753
    CHANNELS 3 Zrotation Yrotation Xrotation
    JOINT LeftLeg
    {
      OFFSET 0 0 -42.358652
      CHANNELS 3 Zrotation Yrotation Xrotation
      JOINT LeftFoot
      {
        OFFSET 0 0 -39.357303
        CHANNELS 3 Zrotation Yrotation Xrotation
      }
    }
  }
  JOINT RightThigh
  {
    OFFSET -8.409438 0 -5.917753
    CHANNELS 3 Zrotation Yrotation Xrotation
    JOINT RightLeg
    {
      OFFSET 0 0 -42.358652
      CHANNELS 3 Zrotation Yrotation Xrotation
      JOINT RightFoot
      {
        OFFSET 0 0 -39.357303
        CHANNELS 3 Zrotation Yrotation Xrotation
      }
    }
  }
  JOINT SpineLow
  {
    OFFSET 0 0 4.719101
    CHANNELS 3 Zrotation Yrotation Xrotation
    JOINT SpineMid
    {
      OFFSET 0 0 12.899191
      CHANNELS 3 Zrotation Yrotation Xrotation
      JOINT Chest
      {
        OFFSET 0 0 12.899191
        CHANNELS 3 Zrotation Yrotation Xrotation
        JOINT LeftShoulder
        {
          OFFSET 7.550562 1.41573 9.438202
          CHANNELS 3 Zrotation Yrotation Xrotation
          JOINT LeftArm
          {
            OFFSET 9.155056 0 4.247191
            CHANNELS 3 Zrotation Yrotation Xrotation
            JOINT LeftForearm
            {
              OFFSET 0 0 25.771955
              CHANNELS 3 Zrotation Yrotation Xrotation
              JOINT LeftHand
              {
                OFFSET 0 0 25.197169
                CHANNELS 3 Zrotation Yrotation Xrotation
              }
            }
          }
        }
        JOINT RightShoulder
        {
          OFFSET -7.550562 1.41573 9.438202
          CHANNELS 3 Zrotation Yrotation Xrotation
          JOINT RightArm
          {
            OFFSET -9.155056 0 4.247191
            CHANNELS 3 Zrotation Yrotation Xrotation
            JOINT RightForearm
            {
              OFFSET 0 0 -25.771955
              CHANNELS 3 Zrotation Yrotation Xrotation
              JOINT RightHand
              {
                OFFSET 0 0 -25.197169
                CHANNELS 3 Zrotation Yrotation Xrotation
              }
            }
          }
        }
        JOINT Neck
        {
          OFFSET 0 0 15.101124
          CHANNELS 3 Zrotation Yrotation Xrotation
          JOINT Head
          {
            OFFSET 0 0 11.325843
            CHANNELS 3 Zrotation Yrotation Xrotation
            End Site
            {
              OFFSET 0 0 14.157303
            }
          }
        }
      }
    }
  }
}
MOTION
Frames: 8
Frame Time: 0.0
0.0  93.25843  0.0  -2.033091  10.064821  -89.266127  1.650417  -17.171841  -8.99405  -5.006715  -1.119092  15.788943  3.543796  0.051723  0.989629  -12.316326  2.283005  -7.91706  -12.143162  8.386686  9.096367  1.17129  0.614238  -0.718457  0.806048  -0.030185  -0.131237  2.203408  -0.078124  -0.359685  2.203408  -0.078124  -0.359685  -29.370119  22.948273  -1.50603  136.209413  51.315124  -146.56043  -12.461197  17.405265  91.892477  93.162242  -11.21371  -12.46057  9.932997  -15.542432  28.113582  105.614703  50.729413  49.152115  7.242293  34.513929  -31.732317  84.977282  -7.676932  42.530326  -14.163516  5.395873  17.469591  -10.779839  3.647926  13.226206  
0.0  93.25843  0.0  -2.183927  9.702171  -88.998652  2.244889  -17.112022  -9.538894  -5.218802  -1.08414  16.332482  3.759437  0.086292  1.003664  -11.801066  1.821924  -8.547657  -12.23039  9.003302  9.632055  1.23413  0.637291  -0.676083  0.805015  -0.060291  -0.177113  2.20086  -0.158882  -0.486067  2.20086  -0.158882  -0.486066  -28.878835  22.864764  -1.341334  136.82139  51.391243  -146.509651  -11.399965  16.255953  92.656124  94.58947  -9.279724  -12.5252  9.548046  -14.928333  27.23408  104.425215  49.443023  47.752387  4.461471  33.928311  -34.756206  84.696191  -7.63055  41.143673  -14.125914  5.371265  17.50981  -10.751396  3.629586  13.255504  
0.0  93.25843  0.0  -2.368148  8.871574  -88.764424  3.240029  -16.984515  -10.040848  -5.390871  -1.182374  16.877332  3.934878  0.114658  1.038817  -10.831083  1.270298  -9.228762  -12.707245  9.69949  10.103232  1.604704  0.692635  -0.568543  0.842121  -0.069527  -0.213372  2.302453  -0.182589  -0.585572  2.302453  -0.182589  -0.585572  -29.033826  22.307482  -1.393985  138.216021  51.512226  -146.467555  -10.403403  14.649743  93.548858  96.135385  -7.133126  -12.363434  9.589389  -14.660771  26.52436  103.147393  48.345795  46.655742  1.344519  32.865142  -38.078911  84.377765  -7.6403  39.552254  -14.091674  5.257363  17.499767  -10.722649  3.545208  13.245391  
0.0  93.25843  0.0  -2.510301  7.549098  -88.600747  4.616236  -16.777585  -10.263947  -5.646513  -1.375042  17.233683  4.06396  0.177121  1.053765  -9.474019  0.677002  -9.969335  -12.696314  10.520263  10.79749  1.617072  0.834921  -0.517458  1.037001  -0.048661  -0.261139  2.835027  -0.121784  -0.715734  2.835028  -0.121784  -0.715734  -28.852447  22.000446  -0.972709  139.067451  51.619594  -146.413165  -8.881303  12.451745  94.418869  97.479246  -4.974326  -11.961113  8.63211  -14.762367  25.983759  102.525965  47.036729  46.206525  -2.091131  31.208817  -41.783046  84.053012  -7.682254  37.811168  -14.203923  5.069904  17.65036  -10.803412  3.397723  13.355699  
0.0  93.25843  0.0  -2.553986  6.02922  -88.651118  5.654019  -16.443745  -10.07301  -6.004739  -1.604139  17.241212  4.339894  0.307333  1.167668  -8.096056  0.146618  -10.608395  -12.489085  11.342229  11.567913  1.997934  1.101456  -0.37661  1.273717  -0.014663  -0.280413  3.481694  -0.025301  -0.767008  3.481694  -0.025301  -0.767008  -28.845555  21.72376  -0.538435  139.820873  51.948178  -146.763055  -7.529503  9.972335  95.443453  98.452295  -2.951413  -11.140414  7.597225  -15.204675  25.763373  102.063364  45.864156  46.344571  -5.675263  28.898084  -45.716429  83.790622  -7.678728  35.975549  -14.543014  4.893601  17.771811  -11.054302  3.252686  13.446402  
0.0  93.25843  0.0  -2.569262  4.371252  -88.612181  6.642624  -16.203381  -9.603794  -6.106659  -1.783268  17.131257  4.547132  0.442167  1.155026  -6.932099  -0.470353  -11.402142  -12.105834  12.134959  12.31904  1.96981  1.348372  -0.329445  1.392298  0.007923  -0.29552  3.805545  0.038658  -0.807011  3.805544  0.038658  -0.80701  -28.096761  21.534767  -0.25286  141.009066  52.03155  -146.697298  -6.038846  7.191106  96.322234  99.228186  -1.040275  -9.83484  7.410185  -15.551358  25.045297  101.611669  44.229656  46.528128  -9.231176  25.916634  -49.770283  83.592188  -7.726014  34.078453  -14.230036  4.802927  17.861621  -10.817884  3.191524  13.509038  
0.0  93.25843  0.0  -2.571314  2.044227  -88.395216  7.690641  -16.053411  -9.052  -5.926826  -1.84637  16.796103  4.89216  0.597511  1.182192  -5.616283  -1.128307  -12.466664  -11.550001  12.840061  13.017318  2.025208  1.58985  -0.271425  1.459999  0.013605  -0.340509  3.990479  0.057722  -0.929538  3.990479  0.057722  -0.929538  -26.532394  21.499469  -0.032558  142.490324  52.068892  -146.631119  -4.678121  4.343092  97.220543  100.095207  0.785533  -8.028432  7.571166  -15.158737  23.929435  101.70657  42.022746  46.336243  -12.698776  22.240262  -53.855617  83.374887  -7.885402  32.03193  -13.563289  4.882975  17.885413  -10.319988  3.270492  13.52235  
0.0  93.25843  0.0  -2.533801  -1.03446  -87.971332  8.789466  -15.871284  -8.485153  -5.069743  -1.972524  16.446993  5.296054  0.762358  1.248486  -4.334091  -1.726689  -13.801827  -10.725837  13.34036  13.60065  2.226308  1.803066  -0.202517  1.593166  0.026919  -0.396833  4.354186  0.099672  -1.08239  4.354186  0.099672  -1.08239  -24.828792  21.464742  0.099001  144.327317  52.031513  -146.463275  -3.32221  1.050112  97.960604  101.454011  2.16444  -5.872595  7.492012  -14.530357  22.972757  102.248068  40.231346  46.190927  -15.51472  17.824229  -57.87183  83.039433  -8.192097  29.831335  -12.598156  4.966961  17.91373  -9.598386  3.361058  13.536221  
